<svg width="80" height="80" viewBox="0 0 80 80" fill="none" xmlns="http://www.w3.org/2000/svg">
<g clip-path="url(#clip0_2128_139)">
<path d="M25.4556 21.6156C23.503 19.663 23.503 16.4972 25.4556 14.5445L36.4645 3.53562C38.4171 1.583 41.5829 1.583 43.5356 3.53562L54.5445 14.5445C56.4971 16.4972 56.4971 19.663 54.5445 21.6156L43.5356 32.6245C41.5829 34.5772 38.4171 34.5772 36.4645 32.6245L25.4556 21.6156Z" fill="#D4976C"/>
<path d="M47.3756 43.5355C45.423 41.5829 45.423 38.4171 47.3756 36.4645L58.3845 25.4555C60.3372 23.5029 63.503 23.5029 65.4556 25.4555L76.4645 36.4645C78.4172 38.4171 78.4172 41.5829 76.4645 43.5355L65.4556 54.5445C63.503 56.4971 60.3372 56.4971 58.3845 54.5445L47.3756 43.5355Z" fill="#D4976C"/>
<path d="M3.53553 43.5355C1.58291 41.5829 1.58291 38.4171 3.53553 36.4645L14.5445 25.4555C16.4971 23.5029 19.6629 23.5029 21.6155 25.4555L32.6244 36.4645C34.5771 38.4171 34.5771 41.5829 32.6244 43.5355L21.6155 54.5445C19.6629 56.4971 16.4971 56.4971 14.5445 54.5445L3.53553 43.5355Z" fill="#D4976C"/>
<path d="M25.4556 65.455C23.503 63.5023 23.503 60.3365 25.4556 58.3839L36.4645 47.375C38.4171 45.4224 41.5829 45.4224 43.5356 47.375L54.5445 58.3839C56.4971 60.3365 56.4971 63.5023 54.5445 65.455L43.5356 76.4639C41.5829 78.4165 38.4171 78.4165 36.4645 76.4639L25.4556 65.455Z" fill="#D4976C"/>
<circle cx="40" cy="17.7775" r="5.92592" fill="#F5F0E8"/>
<circle cx="17.7777" cy="40.0001" r="5.92592" fill="#F5F0E8"/>
<circle cx="62.2222" cy="40.0001" r="5.92592" fill="#F5F0E8"/>
<circle cx="40" cy="62.2223" r="5.92592" fill="#F5F0E8"/>
</g>
<defs>
<clipPath id="clip0_2128_139">
<rect width="80" height="80" fill="white"/>
</clipPath>
</defs>
</svg>
